<?xml version="1.0" encoding="UTF-8" standalone="no"?><!DOCTYPE svg PUBLIC "-//W3C//DTD SVG 1.1//EN" "http://www.w3.org/Graphics/SVG/1.1/DTD/svg11.dtd"><svg width="100%" height="100%" viewBox="0 0 100 83" version="1.1" xmlns="http://www.w3.org/2000/svg" xmlns:xlink="http://www.w3.org/1999/xlink" xml:space="preserve" xmlns:serif="http://www.serif.com/" style="fill-rule:evenodd;clip-rule:evenodd;stroke-linejoin:round;stroke-miterlimit:1.41421;"><clipPath id="_clip1"><rect x="13.5" y="3" width="73" height="77"/></clipPath><g clip-path="url(#_clip1)"><path d="M65.635,46.084c-3.416,6.87 -10.276,11.138 -17.904,11.138c-2.468,0 -4.905,-0.466 -7.239,-1.379c-7.634,-2.976 -12.765,-10.458 -12.765,-18.62c0,-7.335 4.222,-14.283 10.755,-17.701l0.807,-0.422l0,8.175l-0.187,0.164c-2.828,2.494 -4.451,6.06 -4.451,9.784c0.011,7.218 5.878,13.078 13.08,13.078c7.201,0 13.066,-5.86 13.076,-13.062c0,-3.742 -1.621,-7.306 -4.447,-9.8l-0.188,-0.164l0,-0.25l0,-7.013l0,-0.912l0.809,0.422c6.53,3.417 10.751,10.365 10.751,17.701c0,3.087 -0.706,6.068 -2.097,8.861m-21.888,-31.776c0,-2.07 1.682,-3.753 3.748,-3.753l0.468,0c2.07,0 3.752,1.683 3.752,3.753l0,15.172c0,2.069 -1.682,3.751 -3.752,3.751l-0.468,0c-2.066,0 -3.748,-1.682 -3.748,-3.751l0,-15.172Zm27.857,48.044l-0.219,-0.372l0.307,-0.303c6.624,-6.496 10.271,-15.174 10.271,-24.438c0,-18.879 -15.356,-34.239 -34.229,-34.239c-18.877,0 -34.234,15.36 -34.234,34.239c0,18.874 15.357,34.231 34.234,34.231c3.501,0 6.954,-0.529 10.268,-1.567l0.239,-0.074l0.213,0.129c8.382,5.097 17.536,8.276 27.231,9.465c-5.559,-4.886 -10.291,-10.622 -14.081,-17.071" style="fill:#e65a50;fill-rule:nonzero;"/></g></svg>