<?xml version="1.0" encoding="UTF-8" standalone="no"?><!DOCTYPE svg PUBLIC "-//W3C//DTD SVG 1.1//EN" "http://www.w3.org/Graphics/SVG/1.1/DTD/svg11.dtd"><svg width="100%" height="100%" viewBox="0 0 440 76" version="1.1" xmlns="http://www.w3.org/2000/svg" xmlns:xlink="http://www.w3.org/1999/xlink" xml:space="preserve" xmlns:serif="http://www.serif.com/" style="fill-rule:evenodd;clip-rule:evenodd;stroke-linejoin:round;stroke-miterlimit:1.41421;"><clipPath id="_clip1"><rect x="2.981" y="0" width="434.039" height="76"/></clipPath><g clip-path="url(#_clip1)"><g id="Calque-1" serif:id="Calque 1"><path d="M219.416,50.343l0,-41.515c0,-4.189 -1.701,-5.897 -5.868,-5.897l-14.551,0l0,12.152l3.246,0c1.544,0 2.465,0.931 2.465,2.489l0,41.514c0,4.189 1.699,5.897 5.867,5.897l14.557,0l0,-12.151l-3.254,0c-1.542,0 -2.462,-0.932 -2.462,-2.489" style="fill:#e65a50;fill-rule:nonzero;"/><path d="M432.867,50.373l-3.843,-47.425l-15.63,0l-9.924,24.551c-1.559,3.906 -3.149,9.003 -3.165,9.053l-0.121,0.386l-0.403,0l-0.18,0l-0.404,0l-0.121,-0.387c-0.015,-0.051 -1.594,-5.146 -3.157,-9.055l-9.922,-24.548l-15.634,0l-3.839,47.43c-0.109,1.557 -1.018,2.449 -2.492,2.449l-1.659,0l0,12.142l12.52,0c4.057,0 5.543,-1.498 5.895,-5.935l1.412,-20.212c0.342,-4.676 0.004,-10.466 0,-10.522l-0.034,-0.583l1.174,0l0.111,0.404c0.019,0.065 1.863,6.717 3.508,10.522l6.92,16.176l11.635,0l6.918,-16.174c1.642,-3.807 3.489,-10.459 3.511,-10.525l0.112,-0.403l1.176,0l-0.037,0.584c-0.002,0.056 -0.346,5.845 0,10.519l1.413,20.218c0.346,4.433 1.833,5.931 5.891,5.931l12.522,0l0,-12.142l-1.663,0c-1.493,0 -2.377,-0.87 -2.49,-2.454" style="fill:#e65a50;fill-rule:nonzero;"/><path d="M37.757,40.021l-11.656,0l-0.719,0l0.189,-0.692l5.74,-20.924l0.109,-0.406l1.014,0l0.113,0.406l5.74,20.924l0.19,0.692l-0.72,0Zm19.089,10.502l-17.091,-47.592l-15.656,0l-17.09,47.595c-0.552,1.564 -1.126,2.306 -2.899,2.306l-1.13,0l0,12.151l9.606,0c4.104,0 5.716,-1.109 6.895,-4.742l2.742,-8.135l0.126,-0.373l19.16,0l0.124,0.373l2.738,8.131c1.187,3.637 2.796,4.746 6.896,4.746l9.61,0l0,-12.151l-1.133,0c-1.772,0 -2.346,-0.745 -2.898,-2.309" style="fill:#e65a50;fill-rule:nonzero;"/><path d="M172.952,8.828l0,33.031c0,6.605 -4.101,10.71 -10.704,10.71c-6.602,0 -10.704,-4.105 -10.704,-10.71l0,-33.031c0,-4.189 -1.708,-5.897 -5.899,-5.897l-14.553,0l0,12.152l3.25,0c1.538,0 2.494,0.955 2.494,2.489l0,24.728c0,14.201 10.245,23.74 25.499,23.74c15.148,0 25.324,-9.539 25.324,-23.74l0,-24.728c0,-1.534 0.958,-2.489 2.497,-2.489l3.249,0l0,-12.152l-14.554,0c-4.189,0 -5.899,1.708 -5.899,5.897" style="fill:#e65a50;fill-rule:nonzero;"/><path d="M340.817,8.828l0,33.031c0,6.605 -4.102,10.71 -10.704,10.71c-6.601,0 -10.703,-4.105 -10.703,-10.71l0,-33.031c0,-4.189 -1.71,-5.897 -5.896,-5.897l-14.559,0l0,12.152l3.253,0c1.537,0 2.495,0.955 2.495,2.489l0,24.728c0,14.201 10.246,23.74 25.5,23.74c15.149,0 25.325,-9.539 25.325,-23.74l0,-24.728c0,-1.534 0.954,-2.489 2.491,-2.489l3.254,0l0,-12.152l-14.554,0c-4.19,0 -5.902,1.708 -5.902,5.897" style="fill:#e65a50;fill-rule:nonzero;"/><path d="M272.942,8.828l0,31.313l-1.018,-1.635l-22.096,-35.575l-13.365,0l0,47.412c0,1.536 -0.956,2.489 -2.492,2.489l-3.249,0l0,12.151l14.556,0c4.19,0 5.9,-1.709 5.9,-5.897l0,-29.298l0,-1.915l1.016,1.624l22.179,35.486l13.28,0l0,-47.411c0,-1.534 0.957,-2.489 2.494,-2.489l3.243,0l0,-12.152l-14.549,0c-4.192,0 -5.899,1.708 -5.899,5.897" style="fill:#e65a50;fill-rule:nonzero;"/><path d="M113.854,42.845c-3.397,6.832 -10.219,11.077 -17.804,11.077c-2.455,0 -4.878,-0.464 -7.199,-1.372c-7.592,-2.959 -12.695,-10.4 -12.695,-18.517c0,-7.294 4.199,-14.203 10.696,-17.603l0.802,-0.419l0,8.13l-0.186,0.163c-2.812,2.48 -4.426,6.026 -4.426,9.729c0.011,7.178 5.845,13.006 13.008,13.006c7.161,0 12.993,-5.828 13.003,-12.99c0,-3.721 -1.612,-7.265 -4.422,-9.745l-0.187,-0.163l0,-0.249l0,-6.974l0,-0.907l0.804,0.419c6.494,3.399 10.692,10.308 10.692,17.603c0,3.07 -0.702,6.035 -2.086,8.812m-21.766,-31.6c0,-2.058 1.672,-3.732 3.727,-3.732l0.465,0c2.059,0 3.732,1.674 3.732,3.732l0,15.088c0,2.058 -1.673,3.731 -3.732,3.731l-0.465,0c-2.055,0 -3.727,-1.673 -3.727,-3.731l0,-15.088Zm27.702,47.778l-0.217,-0.37l0.305,-0.301c6.587,-6.46 10.214,-15.09 10.214,-24.303c0,-18.774 -15.271,-34.049 -34.039,-34.049c-18.773,0 -34.045,15.275 -34.045,34.049c0,18.77 15.272,34.042 34.045,34.042c3.481,0 6.915,-0.526 10.211,-1.559l0.237,-0.073l0.212,0.128c8.336,5.069 17.439,8.23 27.08,9.413c-5.528,-4.859 -10.234,-10.563 -14.003,-16.977" style="fill:#e65a50;fill-rule:nonzero;"/></g></g></svg>